<mxfile host="app.diagrams.net" agent="Mozilla/5.0 (Windows NT 10.0; Win64; x64) AppleWebKit/537.36 (KHTML, like Gecko) Chrome/134.0.0.0 Safari/537.36" version="28.2.5">
  <diagram name="第 1 页" id="M-s0z8mtGy-1C7ZLIsmC">
    <mxGraphModel dx="3232" dy="1580" grid="1" gridSize="10" guides="1" tooltips="1" connect="1" arrows="1" fold="1" page="1" pageScale="1" pageWidth="827" pageHeight="1169" math="0" shadow="0">
      <root>
        <mxCell id="0" />
        <mxCell id="1" parent="0" />
        <mxCell id="504V_4EhbajXT0zKnMnq-1" value="&lt;font face=&quot;Comic Sans MS&quot; style=&quot;line-height: 180%; font-size: 25px;&quot;&gt;JNDI&lt;/font&gt;" style="text;html=1;align=center;verticalAlign=middle;resizable=0;points=[];autosize=1;strokeColor=none;fillColor=none;" vertex="1" parent="1">
          <mxGeometry x="-65" width="90" height="60" as="geometry" />
        </mxCell>
        <mxCell id="504V_4EhbajXT0zKnMnq-3" style="edgeStyle=orthogonalEdgeStyle;rounded=0;orthogonalLoop=1;jettySize=auto;html=1;" edge="1" parent="1" source="504V_4EhbajXT0zKnMnq-2">
          <mxGeometry relative="1" as="geometry">
            <mxPoint x="220" y="170" as="targetPoint" />
          </mxGeometry>
        </mxCell>
        <mxCell id="504V_4EhbajXT0zKnMnq-2" value="该方法调用NamingManager.&lt;div&gt;getObjectInstance&lt;/div&gt;" style="rounded=0;whiteSpace=wrap;html=1;" vertex="1" parent="1">
          <mxGeometry x="25" y="140" width="120" height="60" as="geometry" />
        </mxCell>
        <mxCell id="504V_4EhbajXT0zKnMnq-4" value="获取工厂NamingManager.&lt;div&gt;getFactoryFrom&lt;/div&gt;&lt;div&gt;Reference&lt;/div&gt;" style="rounded=0;whiteSpace=wrap;html=1;" vertex="1" parent="1">
          <mxGeometry x="220" y="133" width="120" height="60" as="geometry" />
        </mxCell>
        <mxCell id="504V_4EhbajXT0zKnMnq-5" value="危险类进行加载" style="text;html=1;align=center;verticalAlign=middle;resizable=0;points=[];autosize=1;strokeColor=none;fillColor=none;" vertex="1" parent="1">
          <mxGeometry x="235" y="88" width="110" height="30" as="geometry" />
        </mxCell>
        <mxCell id="504V_4EhbajXT0zKnMnq-9" style="edgeStyle=orthogonalEdgeStyle;rounded=0;orthogonalLoop=1;jettySize=auto;html=1;" edge="1" parent="1" source="504V_4EhbajXT0zKnMnq-6" target="504V_4EhbajXT0zKnMnq-2">
          <mxGeometry relative="1" as="geometry" />
        </mxCell>
        <mxCell id="504V_4EhbajXT0zKnMnq-6" value="客户端交互完成后，调用RegistryContext.&lt;div&gt;decodeObject并传入引用对象&lt;/div&gt;" style="rounded=0;whiteSpace=wrap;html=1;" vertex="1" parent="1">
          <mxGeometry x="-185" y="140" width="120" height="60" as="geometry" />
        </mxCell>
        <mxCell id="504V_4EhbajXT0zKnMnq-7" value="JNDI接口走的RMI逻辑" style="rounded=0;whiteSpace=wrap;html=1;" vertex="1" parent="1">
          <mxGeometry x="-400" y="140" width="120" height="60" as="geometry" />
        </mxCell>
        <mxCell id="504V_4EhbajXT0zKnMnq-8" style="edgeStyle=orthogonalEdgeStyle;rounded=0;orthogonalLoop=1;jettySize=auto;html=1;entryX=0.029;entryY=0.512;entryDx=0;entryDy=0;entryPerimeter=0;" edge="1" parent="1" source="504V_4EhbajXT0zKnMnq-7" target="504V_4EhbajXT0zKnMnq-6">
          <mxGeometry relative="1" as="geometry" />
        </mxCell>
        <mxCell id="504V_4EhbajXT0zKnMnq-10" value="&lt;font style=&quot;font-size: 9px;&quot;&gt;jdk8u121之后在该方法中修复trustUrlCodebase&lt;/font&gt;&lt;div&gt;&lt;font style=&quot;font-size: 9px;&quot;&gt;LDAP未修复&lt;/font&gt;&lt;/div&gt;" style="text;html=1;align=center;verticalAlign=middle;resizable=0;points=[];autosize=1;strokeColor=none;fillColor=none;" vertex="1" parent="1">
          <mxGeometry x="-240" y="235" width="210" height="40" as="geometry" />
        </mxCell>
        <mxCell id="504V_4EhbajXT0zKnMnq-17" style="edgeStyle=orthogonalEdgeStyle;rounded=0;orthogonalLoop=1;jettySize=auto;html=1;" edge="1" parent="1" source="504V_4EhbajXT0zKnMnq-14" target="504V_4EhbajXT0zKnMnq-18">
          <mxGeometry relative="1" as="geometry">
            <mxPoint x="-150" y="350" as="targetPoint" />
          </mxGeometry>
        </mxCell>
        <mxCell id="504V_4EhbajXT0zKnMnq-14" value="JNDI接口调用lookup" style="rounded=0;whiteSpace=wrap;html=1;" vertex="1" parent="1">
          <mxGeometry x="-400" y="320" width="120" height="60" as="geometry" />
        </mxCell>
        <mxCell id="504V_4EhbajXT0zKnMnq-15" value="RMI" style="text;html=1;align=center;verticalAlign=middle;resizable=0;points=[];autosize=1;strokeColor=none;fillColor=none;" vertex="1" parent="1">
          <mxGeometry x="-480" y="148" width="50" height="30" as="geometry" />
        </mxCell>
        <mxCell id="504V_4EhbajXT0zKnMnq-16" value="LDAP" style="text;html=1;align=center;verticalAlign=middle;resizable=0;points=[];autosize=1;strokeColor=none;fillColor=none;" vertex="1" parent="1">
          <mxGeometry x="-480" y="335" width="50" height="30" as="geometry" />
        </mxCell>
        <mxCell id="504V_4EhbajXT0zKnMnq-20" style="edgeStyle=orthogonalEdgeStyle;rounded=0;orthogonalLoop=1;jettySize=auto;html=1;" edge="1" parent="1" source="504V_4EhbajXT0zKnMnq-18" target="504V_4EhbajXT0zKnMnq-21">
          <mxGeometry relative="1" as="geometry">
            <mxPoint x="50" y="350" as="targetPoint" />
          </mxGeometry>
        </mxCell>
        <mxCell id="504V_4EhbajXT0zKnMnq-18" value="LdapCtx.c_lookup中调用decodeObject后调用Direct" style="rounded=0;whiteSpace=wrap;html=1;" vertex="1" parent="1">
          <mxGeometry x="-195" y="320" width="120" height="60" as="geometry" />
        </mxCell>
        <mxCell id="504V_4EhbajXT0zKnMnq-19" value="&lt;font face=&quot;Comic Sans MS&quot; style=&quot;color: light-dark(rgb(0, 0, 0), rgb(255, 0, 0));&quot;&gt;decode为注入入口&lt;/font&gt;&lt;div&gt;&lt;font face=&quot;Comic Sans MS&quot; style=&quot;color: light-dark(rgb(0, 0, 0), rgb(255, 0, 0));&quot;&gt;进行后续调用&lt;/font&gt;&lt;/div&gt;" style="text;html=1;align=center;verticalAlign=middle;resizable=0;points=[];autosize=1;strokeColor=none;fillColor=none;" vertex="1" parent="1">
          <mxGeometry x="-75" y="93" width="120" height="40" as="geometry" />
        </mxCell>
        <mxCell id="504V_4EhbajXT0zKnMnq-25" style="edgeStyle=orthogonalEdgeStyle;rounded=0;orthogonalLoop=1;jettySize=auto;html=1;" edge="1" parent="1" source="504V_4EhbajXT0zKnMnq-21" target="504V_4EhbajXT0zKnMnq-4">
          <mxGeometry relative="1" as="geometry">
            <mxPoint x="180" y="350" as="targetPoint" />
          </mxGeometry>
        </mxCell>
        <mxCell id="504V_4EhbajXT0zKnMnq-21" value="DirectoryManager.&lt;div&gt;getObjectInstance&lt;/div&gt;" style="rounded=0;whiteSpace=wrap;html=1;" vertex="1" parent="1">
          <mxGeometry x="20" y="320" width="120" height="60" as="geometry" />
        </mxCell>
        <mxCell id="504V_4EhbajXT0zKnMnq-23" value="&lt;font face=&quot;Comic Sans MS&quot; style=&quot;color: light-dark(rgb(0, 0, 0), rgb(255, 51, 51));&quot;&gt;这里DirectoryManager&lt;/font&gt;&lt;div&gt;&lt;font face=&quot;Comic Sans MS&quot; style=&quot;color: light-dark(rgb(0, 0, 0), rgb(255, 51, 51));&quot;&gt;.getObjectInstance作为注入入口&lt;/font&gt;&lt;/div&gt;" style="text;html=1;align=center;verticalAlign=middle;resizable=0;points=[];autosize=1;strokeColor=none;fillColor=none;" vertex="1" parent="1">
          <mxGeometry x="-125" y="275" width="210" height="40" as="geometry" />
        </mxCell>
        <mxCell id="504V_4EhbajXT0zKnMnq-26" value="" style="endArrow=none;dashed=1;html=1;rounded=0;" edge="1" parent="1" source="504V_4EhbajXT0zKnMnq-19">
          <mxGeometry width="50" height="50" relative="1" as="geometry">
            <mxPoint x="-130" y="300" as="sourcePoint" />
            <mxPoint x="10" y="170" as="targetPoint" />
            <Array as="points">
              <mxPoint x="-20" y="150" />
            </Array>
          </mxGeometry>
        </mxCell>
        <mxCell id="504V_4EhbajXT0zKnMnq-27" value="" style="endArrow=none;dashed=1;html=1;dashPattern=1 3;strokeWidth=2;rounded=0;" edge="1" parent="1">
          <mxGeometry width="50" height="50" relative="1" as="geometry">
            <mxPoint x="-20" y="350" as="sourcePoint" />
            <mxPoint x="-30" y="310" as="targetPoint" />
            <Array as="points">
              <mxPoint x="-40" y="330" />
            </Array>
          </mxGeometry>
        </mxCell>
        <mxCell id="504V_4EhbajXT0zKnMnq-28" value="高版本绕过" style="text;html=1;align=center;verticalAlign=middle;resizable=0;points=[];autosize=1;strokeColor=none;fillColor=none;" vertex="1" parent="1">
          <mxGeometry x="-480" y="555" width="80" height="30" as="geometry" />
        </mxCell>
        <mxCell id="504V_4EhbajXT0zKnMnq-29" value="" style="endArrow=none;dashed=1;html=1;rounded=0;entryX=0;entryY=0.75;entryDx=0;entryDy=0;exitX=0.262;exitY=0.086;exitDx=0;exitDy=0;exitPerimeter=0;" edge="1" parent="1" source="504V_4EhbajXT0zKnMnq-10" target="504V_4EhbajXT0zKnMnq-6">
          <mxGeometry width="50" height="50" relative="1" as="geometry">
            <mxPoint x="-80" y="310" as="sourcePoint" />
            <mxPoint x="-30" y="260" as="targetPoint" />
          </mxGeometry>
        </mxCell>
        <mxCell id="504V_4EhbajXT0zKnMnq-37" style="edgeStyle=orthogonalEdgeStyle;rounded=0;orthogonalLoop=1;jettySize=auto;html=1;strokeColor=light-dark(#000000,#33FFFF);" edge="1" parent="1" source="504V_4EhbajXT0zKnMnq-30" target="504V_4EhbajXT0zKnMnq-36">
          <mxGeometry relative="1" as="geometry" />
        </mxCell>
        <mxCell id="504V_4EhbajXT0zKnMnq-30" value="&lt;font style=&quot;color: light-dark(rgb(0, 0, 0), rgb(102, 255, 255));&quot;&gt;获取工厂对象后，调用对象的getObjectInstance&lt;/font&gt;" style="rounded=0;whiteSpace=wrap;html=1;" vertex="1" parent="1">
          <mxGeometry x="220" y="525" width="120" height="60" as="geometry" />
        </mxCell>
        <mxCell id="504V_4EhbajXT0zKnMnq-34" value="&lt;font face=&quot;Lucida Console&quot;&gt;RMI,LDAP终点&lt;/font&gt;" style="text;html=1;align=center;verticalAlign=middle;resizable=0;points=[];autosize=1;strokeColor=none;fillColor=none;" vertex="1" parent="1">
          <mxGeometry x="355" y="138" width="110" height="30" as="geometry" />
        </mxCell>
        <mxCell id="504V_4EhbajXT0zKnMnq-35" value="&lt;font style=&quot;color: light-dark(rgb(0, 0, 0), rgb(51, 255, 255));&quot; face=&quot;Garamond&quot;&gt;高版本绕过终点&lt;/font&gt;" style="text;html=1;align=center;verticalAlign=middle;resizable=0;points=[];autosize=1;strokeColor=none;fillColor=none;" vertex="1" parent="1">
          <mxGeometry x="475" y="470" width="110" height="30" as="geometry" />
        </mxCell>
        <mxCell id="504V_4EhbajXT0zKnMnq-36" value="&lt;font style=&quot;color: light-dark(rgb(0, 0, 0), rgb(51, 255, 255));&quot;&gt;&lt;span style=&quot;white-space: pre;&quot;&gt;&#x9;&lt;/span&gt;BeanFactory&lt;/font&gt;&lt;div&gt;&lt;font style=&quot;color: light-dark(rgb(0, 0, 0), rgb(51, 255, 255));&quot;&gt;.getObjectInstance&lt;/font&gt;&lt;/div&gt;" style="rounded=0;whiteSpace=wrap;html=1;" vertex="1" parent="1">
          <mxGeometry x="475" y="525" width="120" height="60" as="geometry" />
        </mxCell>
        <mxCell id="504V_4EhbajXT0zKnMnq-38" value="即：" style="text;html=1;align=center;verticalAlign=middle;resizable=0;points=[];autosize=1;strokeColor=none;fillColor=none;" vertex="1" parent="1">
          <mxGeometry x="389" y="525" width="50" height="30" as="geometry" />
        </mxCell>
        <mxCell id="504V_4EhbajXT0zKnMnq-42" value="" style="endArrow=classic;html=1;rounded=0;strokeColor=light-dark(#000000,#74F8FF);" edge="1" parent="1">
          <mxGeometry width="50" height="50" relative="1" as="geometry">
            <mxPoint x="150" y="200" as="sourcePoint" />
            <mxPoint x="300" y="520" as="targetPoint" />
          </mxGeometry>
        </mxCell>
        <mxCell id="504V_4EhbajXT0zKnMnq-43" value="" style="endArrow=classic;html=1;rounded=0;exitX=0.41;exitY=1.038;exitDx=0;exitDy=0;exitPerimeter=0;strokeColor=light-dark(#000000,#00FFFF);" edge="1" parent="1" source="504V_4EhbajXT0zKnMnq-21" target="504V_4EhbajXT0zKnMnq-30">
          <mxGeometry width="50" height="50" relative="1" as="geometry">
            <mxPoint x="60" y="390" as="sourcePoint" />
            <mxPoint x="110" y="340" as="targetPoint" />
          </mxGeometry>
        </mxCell>
      </root>
    </mxGraphModel>
  </diagram>
</mxfile>
